<mxfile host="app.diagrams.net" modified="2024-04-30T01:23:50.835Z" agent="Mozilla/5.0 (Windows NT 10.0; Win64; x64) AppleWebKit/537.36 (KHTML, like Gecko) Chrome/124.0.0.0 Safari/537.36" etag="YUYNiq9xqtZdQF14Xsio" version="24.3.1" type="device">
  <diagram name="Page-1" id="ffavFF6vGU0klx9QYmE5">
    <mxGraphModel dx="2885" dy="811" grid="1" gridSize="10" guides="1" tooltips="1" connect="1" arrows="1" fold="1" page="1" pageScale="1" pageWidth="850" pageHeight="1100" math="0" shadow="0">
      <root>
        <mxCell id="0" />
        <mxCell id="1" parent="0" />
        <mxCell id="y9MZZ9A1IKefR8tWNW04-1" value="GradedActivity" style="swimlane;fontStyle=1;align=center;verticalAlign=top;childLayout=stackLayout;horizontal=1;startSize=28.066668701171874;horizontalStack=0;resizeParent=1;resizeParentMax=0;resizeLast=0;collapsible=0;marginBottom=0;" vertex="1" parent="1">
          <mxGeometry x="10" y="380" width="190" height="148.06666870117186" as="geometry" />
        </mxCell>
        <mxCell id="y9MZZ9A1IKefR8tWNW04-2" value="- double score" style="text;strokeColor=none;fillColor=none;align=left;verticalAlign=top;spacingLeft=4;spacingRight=4;overflow=hidden;rotatable=0;points=[[0,0.5],[1,0.5]];portConstraint=eastwest;" vertex="1" parent="y9MZZ9A1IKefR8tWNW04-1">
          <mxGeometry y="28.066668701171874" width="190" height="28" as="geometry" />
        </mxCell>
        <mxCell id="y9MZZ9A1IKefR8tWNW04-3" style="line;strokeWidth=1;fillColor=none;align=left;verticalAlign=middle;spacingTop=-1;spacingLeft=3;spacingRight=3;rotatable=0;labelPosition=right;points=[];portConstraint=eastwest;strokeColor=inherit;" vertex="1" parent="y9MZZ9A1IKefR8tWNW04-1">
          <mxGeometry y="56.06666870117188" width="190" height="8" as="geometry" />
        </mxCell>
        <mxCell id="y9MZZ9A1IKefR8tWNW04-4" value="+ void setScore(double s)" style="text;strokeColor=none;fillColor=none;align=left;verticalAlign=top;spacingLeft=4;spacingRight=4;overflow=hidden;rotatable=0;points=[[0,0.5],[1,0.5]];portConstraint=eastwest;" vertex="1" parent="y9MZZ9A1IKefR8tWNW04-1">
          <mxGeometry y="64.06666870117188" width="190" height="28" as="geometry" />
        </mxCell>
        <mxCell id="y9MZZ9A1IKefR8tWNW04-5" value="+ double getScore()" style="text;strokeColor=none;fillColor=none;align=left;verticalAlign=top;spacingLeft=4;spacingRight=4;overflow=hidden;rotatable=0;points=[[0,0.5],[1,0.5]];portConstraint=eastwest;" vertex="1" parent="y9MZZ9A1IKefR8tWNW04-1">
          <mxGeometry y="92.06666870117188" width="190" height="28" as="geometry" />
        </mxCell>
        <mxCell id="y9MZZ9A1IKefR8tWNW04-6" value="+ char getLetterGrade()" style="text;strokeColor=none;fillColor=none;align=left;verticalAlign=top;spacingLeft=4;spacingRight=4;overflow=hidden;rotatable=0;points=[[0,0.5],[1,0.5]];portConstraint=eastwest;" vertex="1" parent="y9MZZ9A1IKefR8tWNW04-1">
          <mxGeometry y="120.06666870117188" width="190" height="28" as="geometry" />
        </mxCell>
        <mxCell id="y9MZZ9A1IKefR8tWNW04-7" value="PassFailExam" style="swimlane;fontStyle=1;align=center;verticalAlign=top;childLayout=stackLayout;horizontal=1;startSize=27.166666666666668;horizontalStack=0;resizeParent=1;resizeParentMax=0;resizeLast=0;collapsible=0;marginBottom=0;" vertex="1" parent="1">
          <mxGeometry x="240" y="380" width="190" height="170.16666666666669" as="geometry" />
        </mxCell>
        <mxCell id="y9MZZ9A1IKefR8tWNW04-8" value="- int numQuestions" style="text;strokeColor=none;fillColor=none;align=left;verticalAlign=top;spacingLeft=4;spacingRight=4;overflow=hidden;rotatable=0;points=[[0,0.5],[1,0.5]];portConstraint=eastwest;" vertex="1" parent="y9MZZ9A1IKefR8tWNW04-7">
          <mxGeometry y="27.166666666666668" width="190" height="27" as="geometry" />
        </mxCell>
        <mxCell id="y9MZZ9A1IKefR8tWNW04-9" value="- int numMissed" style="text;strokeColor=none;fillColor=none;align=left;verticalAlign=top;spacingLeft=4;spacingRight=4;overflow=hidden;rotatable=0;points=[[0,0.5],[1,0.5]];portConstraint=eastwest;" vertex="1" parent="y9MZZ9A1IKefR8tWNW04-7">
          <mxGeometry y="54.16666666666667" width="190" height="27" as="geometry" />
        </mxCell>
        <mxCell id="y9MZZ9A1IKefR8tWNW04-10" value="- int minPassingScore" style="text;strokeColor=none;fillColor=none;align=left;verticalAlign=top;spacingLeft=4;spacingRight=4;overflow=hidden;rotatable=0;points=[[0,0.5],[1,0.5]];portConstraint=eastwest;" vertex="1" parent="y9MZZ9A1IKefR8tWNW04-7">
          <mxGeometry y="81.16666666666667" width="190" height="27" as="geometry" />
        </mxCell>
        <mxCell id="y9MZZ9A1IKefR8tWNW04-11" style="line;strokeWidth=1;fillColor=none;align=left;verticalAlign=middle;spacingTop=-1;spacingLeft=3;spacingRight=3;rotatable=0;labelPosition=right;points=[];portConstraint=eastwest;strokeColor=inherit;" vertex="1" parent="y9MZZ9A1IKefR8tWNW04-7">
          <mxGeometry y="108.16666666666667" width="190" height="8" as="geometry" />
        </mxCell>
        <mxCell id="y9MZZ9A1IKefR8tWNW04-12" value="+ void setScore(double s)" style="text;strokeColor=none;fillColor=none;align=left;verticalAlign=top;spacingLeft=4;spacingRight=4;overflow=hidden;rotatable=0;points=[[0,0.5],[1,0.5]];portConstraint=eastwest;" vertex="1" parent="y9MZZ9A1IKefR8tWNW04-7">
          <mxGeometry y="116.16666666666667" width="190" height="27" as="geometry" />
        </mxCell>
        <mxCell id="y9MZZ9A1IKefR8tWNW04-13" value="+ double getScore()" style="text;strokeColor=none;fillColor=none;align=left;verticalAlign=top;spacingLeft=4;spacingRight=4;overflow=hidden;rotatable=0;points=[[0,0.5],[1,0.5]];portConstraint=eastwest;" vertex="1" parent="y9MZZ9A1IKefR8tWNW04-7">
          <mxGeometry y="143.16666666666669" width="190" height="27" as="geometry" />
        </mxCell>
        <mxCell id="y9MZZ9A1IKefR8tWNW04-14" value="Essay" style="swimlane;fontStyle=1;align=center;verticalAlign=top;childLayout=stackLayout;horizontal=1;startSize=26.523810250418528;horizontalStack=0;resizeParent=1;resizeParentMax=0;resizeLast=0;collapsible=0;marginBottom=0;" vertex="1" parent="1">
          <mxGeometry x="470" y="410" width="510" height="190.00381025041852" as="geometry" />
        </mxCell>
        <mxCell id="y9MZZ9A1IKefR8tWNW04-15" value="- int grammerPoints" style="text;strokeColor=none;fillColor=none;align=left;verticalAlign=top;spacingLeft=4;spacingRight=4;overflow=hidden;rotatable=0;points=[[0,0.5],[1,0.5]];portConstraint=eastwest;" vertex="1" parent="y9MZZ9A1IKefR8tWNW04-14">
          <mxGeometry y="26.523810250418528" width="510" height="27" as="geometry" />
        </mxCell>
        <mxCell id="y9MZZ9A1IKefR8tWNW04-16" value="- int spellingPoints" style="text;strokeColor=none;fillColor=none;align=left;verticalAlign=top;spacingLeft=4;spacingRight=4;overflow=hidden;rotatable=0;points=[[0,0.5],[1,0.5]];portConstraint=eastwest;" vertex="1" parent="y9MZZ9A1IKefR8tWNW04-14">
          <mxGeometry y="53.52381025041853" width="510" height="27" as="geometry" />
        </mxCell>
        <mxCell id="y9MZZ9A1IKefR8tWNW04-17" value="- int lengthPoints" style="text;strokeColor=none;fillColor=none;align=left;verticalAlign=top;spacingLeft=4;spacingRight=4;overflow=hidden;rotatable=0;points=[[0,0.5],[1,0.5]];portConstraint=eastwest;" vertex="1" parent="y9MZZ9A1IKefR8tWNW04-14">
          <mxGeometry y="80.52381025041853" width="510" height="27" as="geometry" />
        </mxCell>
        <mxCell id="y9MZZ9A1IKefR8tWNW04-18" value="- int contentPoints" style="text;strokeColor=none;fillColor=none;align=left;verticalAlign=top;spacingLeft=4;spacingRight=4;overflow=hidden;rotatable=0;points=[[0,0.5],[1,0.5]];portConstraint=eastwest;" vertex="1" parent="y9MZZ9A1IKefR8tWNW04-14">
          <mxGeometry y="107.52381025041853" width="510" height="27" as="geometry" />
        </mxCell>
        <mxCell id="y9MZZ9A1IKefR8tWNW04-19" style="line;strokeWidth=1;fillColor=none;align=left;verticalAlign=middle;spacingTop=-1;spacingLeft=3;spacingRight=3;rotatable=0;labelPosition=right;points=[];portConstraint=eastwest;strokeColor=inherit;" vertex="1" parent="y9MZZ9A1IKefR8tWNW04-14">
          <mxGeometry y="134.52381025041853" width="510" height="8" as="geometry" />
        </mxCell>
        <mxCell id="y9MZZ9A1IKefR8tWNW04-20" value="+ void setEssayvalues(int grammerPoints, int spellingPoints, int lengthPoints, int contentPoints)" style="text;strokeColor=none;fillColor=none;align=left;verticalAlign=top;spacingLeft=4;spacingRight=4;overflow=hidden;rotatable=0;points=[[0,0.5],[1,0.5]];portConstraint=eastwest;" vertex="1" parent="y9MZZ9A1IKefR8tWNW04-14">
          <mxGeometry y="142.52381025041853" width="510" height="27" as="geometry" />
        </mxCell>
        <mxCell id="y9MZZ9A1IKefR8tWNW04-21" value="+ double getTotalScore()" style="text;strokeColor=none;fillColor=none;align=left;verticalAlign=top;spacingLeft=4;spacingRight=4;overflow=hidden;rotatable=0;points=[[0,0.5],[1,0.5]];portConstraint=eastwest;" vertex="1" parent="y9MZZ9A1IKefR8tWNW04-14">
          <mxGeometry y="169.52381025041853" width="510" height="20.48" as="geometry" />
        </mxCell>
        <mxCell id="y9MZZ9A1IKefR8tWNW04-22" value="FinalExam" style="swimlane;fontStyle=1;align=center;verticalAlign=top;childLayout=stackLayout;horizontal=1;startSize=28.066668701171874;horizontalStack=0;resizeParent=1;resizeParentMax=0;resizeLast=0;collapsible=0;marginBottom=0;" vertex="1" parent="1">
          <mxGeometry x="1180" y="370" width="190" height="148.06666870117186" as="geometry" />
        </mxCell>
        <mxCell id="y9MZZ9A1IKefR8tWNW04-23" value="- int numQuestions" style="text;strokeColor=none;fillColor=none;align=left;verticalAlign=top;spacingLeft=4;spacingRight=4;overflow=hidden;rotatable=0;points=[[0,0.5],[1,0.5]];portConstraint=eastwest;" vertex="1" parent="y9MZZ9A1IKefR8tWNW04-22">
          <mxGeometry y="28.066668701171874" width="190" height="28" as="geometry" />
        </mxCell>
        <mxCell id="y9MZZ9A1IKefR8tWNW04-24" value="- int numMissed" style="text;strokeColor=none;fillColor=none;align=left;verticalAlign=top;spacingLeft=4;spacingRight=4;overflow=hidden;rotatable=0;points=[[0,0.5],[1,0.5]];portConstraint=eastwest;" vertex="1" parent="y9MZZ9A1IKefR8tWNW04-22">
          <mxGeometry y="56.06666870117188" width="190" height="28" as="geometry" />
        </mxCell>
        <mxCell id="y9MZZ9A1IKefR8tWNW04-25" style="line;strokeWidth=1;fillColor=none;align=left;verticalAlign=middle;spacingTop=-1;spacingLeft=3;spacingRight=3;rotatable=0;labelPosition=right;points=[];portConstraint=eastwest;strokeColor=inherit;" vertex="1" parent="y9MZZ9A1IKefR8tWNW04-22">
          <mxGeometry y="84.06666870117188" width="190" height="8" as="geometry" />
        </mxCell>
        <mxCell id="y9MZZ9A1IKefR8tWNW04-26" value="+ void setScore(double s)" style="text;strokeColor=none;fillColor=none;align=left;verticalAlign=top;spacingLeft=4;spacingRight=4;overflow=hidden;rotatable=0;points=[[0,0.5],[1,0.5]];portConstraint=eastwest;" vertex="1" parent="y9MZZ9A1IKefR8tWNW04-22">
          <mxGeometry y="92.06666870117188" width="190" height="28" as="geometry" />
        </mxCell>
        <mxCell id="y9MZZ9A1IKefR8tWNW04-27" value="+ double getScore()" style="text;strokeColor=none;fillColor=none;align=left;verticalAlign=top;spacingLeft=4;spacingRight=4;overflow=hidden;rotatable=0;points=[[0,0.5],[1,0.5]];portConstraint=eastwest;" vertex="1" parent="y9MZZ9A1IKefR8tWNW04-22">
          <mxGeometry y="120.06666870117188" width="190" height="28" as="geometry" />
        </mxCell>
        <mxCell id="y9MZZ9A1IKefR8tWNW04-28" value="CourseGrades" style="swimlane;fontStyle=1;align=center;verticalAlign=top;childLayout=stackLayout;horizontal=1;startSize=26.523810250418528;horizontalStack=0;resizeParent=1;resizeParentMax=0;resizeLast=0;collapsible=0;marginBottom=0;" vertex="1" parent="1">
          <mxGeometry x="441" y="150" width="322" height="190.00381025041852" as="geometry" />
        </mxCell>
        <mxCell id="y9MZZ9A1IKefR8tWNW04-29" value="- GradedActivity[] grades" style="text;strokeColor=none;fillColor=none;align=left;verticalAlign=top;spacingLeft=4;spacingRight=4;overflow=hidden;rotatable=0;points=[[0,0.5],[1,0.5]];portConstraint=eastwest;" vertex="1" parent="y9MZZ9A1IKefR8tWNW04-28">
          <mxGeometry y="26.523810250418528" width="322" height="27" as="geometry" />
        </mxCell>
        <mxCell id="y9MZZ9A1IKefR8tWNW04-30" style="line;strokeWidth=1;fillColor=none;align=left;verticalAlign=middle;spacingTop=-1;spacingLeft=3;spacingRight=3;rotatable=0;labelPosition=right;points=[];portConstraint=eastwest;strokeColor=inherit;" vertex="1" parent="y9MZZ9A1IKefR8tWNW04-28">
          <mxGeometry y="53.52381025041853" width="322" height="8" as="geometry" />
        </mxCell>
        <mxCell id="y9MZZ9A1IKefR8tWNW04-31" value="+ void setLab(GradedActivity lab)" style="text;strokeColor=none;fillColor=none;align=left;verticalAlign=top;spacingLeft=4;spacingRight=4;overflow=hidden;rotatable=0;points=[[0,0.5],[1,0.5]];portConstraint=eastwest;" vertex="1" parent="y9MZZ9A1IKefR8tWNW04-28">
          <mxGeometry y="61.52381025041853" width="322" height="27" as="geometry" />
        </mxCell>
        <mxCell id="y9MZZ9A1IKefR8tWNW04-32" value="+ void setPassFailExam(PassFailExam exam)" style="text;strokeColor=none;fillColor=none;align=left;verticalAlign=top;spacingLeft=4;spacingRight=4;overflow=hidden;rotatable=0;points=[[0,0.5],[1,0.5]];portConstraint=eastwest;" vertex="1" parent="y9MZZ9A1IKefR8tWNW04-28">
          <mxGeometry y="88.52381025041853" width="322" height="27" as="geometry" />
        </mxCell>
        <mxCell id="y9MZZ9A1IKefR8tWNW04-33" value="+ void setEssay(Essay essay)" style="text;strokeColor=none;fillColor=none;align=left;verticalAlign=top;spacingLeft=4;spacingRight=4;overflow=hidden;rotatable=0;points=[[0,0.5],[1,0.5]];portConstraint=eastwest;" vertex="1" parent="y9MZZ9A1IKefR8tWNW04-28">
          <mxGeometry y="115.52381025041853" width="322" height="27" as="geometry" />
        </mxCell>
        <mxCell id="y9MZZ9A1IKefR8tWNW04-34" value="+ void setFinalExam(FinalExam finalExam)" style="text;strokeColor=none;fillColor=none;align=left;verticalAlign=top;spacingLeft=4;spacingRight=4;overflow=hidden;rotatable=0;points=[[0,0.5],[1,0.5]];portConstraint=eastwest;" vertex="1" parent="y9MZZ9A1IKefR8tWNW04-28">
          <mxGeometry y="142.52381025041853" width="322" height="27" as="geometry" />
        </mxCell>
        <mxCell id="y9MZZ9A1IKefR8tWNW04-35" value="+ String toString()" style="text;strokeColor=none;fillColor=none;align=left;verticalAlign=top;spacingLeft=4;spacingRight=4;overflow=hidden;rotatable=0;points=[[0,0.5],[1,0.5]];portConstraint=eastwest;" vertex="1" parent="y9MZZ9A1IKefR8tWNW04-28">
          <mxGeometry y="169.52381025041853" width="322" height="20.48" as="geometry" />
        </mxCell>
        <mxCell id="y9MZZ9A1IKefR8tWNW04-36" value="CourseGradeDemo" style="swimlane;fontStyle=1;align=center;verticalAlign=top;childLayout=stackLayout;horizontal=1;startSize=28.933334350585938;horizontalStack=0;resizeParent=1;resizeParentMax=0;resizeLast=0;collapsible=0;marginBottom=0;" vertex="1" parent="1">
          <mxGeometry x="523" y="20" width="157" height="65.93333435058594" as="geometry" />
        </mxCell>
        <mxCell id="y9MZZ9A1IKefR8tWNW04-37" style="line;strokeWidth=1;fillColor=none;align=left;verticalAlign=middle;spacingTop=-1;spacingLeft=3;spacingRight=3;rotatable=0;labelPosition=right;points=[];portConstraint=eastwest;strokeColor=inherit;" vertex="1" parent="y9MZZ9A1IKefR8tWNW04-36">
          <mxGeometry y="28.933334350585938" width="157" height="8" as="geometry" />
        </mxCell>
        <mxCell id="y9MZZ9A1IKefR8tWNW04-38" value="+ main(String args[])" style="text;strokeColor=none;fillColor=none;align=left;verticalAlign=top;spacingLeft=4;spacingRight=4;overflow=hidden;rotatable=0;points=[[0,0.5],[1,0.5]];portConstraint=eastwest;" vertex="1" parent="y9MZZ9A1IKefR8tWNW04-36">
          <mxGeometry y="36.93333435058594" width="157" height="29" as="geometry" />
        </mxCell>
        <mxCell id="y9MZZ9A1IKefR8tWNW04-39" value="" style="curved=1;startArrow=none;endArrow=none;exitX=-0.00021031776570385287;exitY=0.7087908210197218;entryX=0.5012061269659746;entryY=-0.0022522178856102196;rounded=0;" edge="1" parent="1" source="y9MZZ9A1IKefR8tWNW04-28" target="y9MZZ9A1IKefR8tWNW04-1">
          <mxGeometry relative="1" as="geometry">
            <Array as="points">
              <mxPoint x="115" y="369" />
            </Array>
          </mxGeometry>
        </mxCell>
        <mxCell id="y9MZZ9A1IKefR8tWNW04-40" value="1" style="edgeLabel;resizable=0;labelBackgroundColor=none;fontSize=12;align=right;verticalAlign=top;" vertex="1" parent="y9MZZ9A1IKefR8tWNW04-39">
          <mxGeometry x="-1" relative="1" as="geometry" />
        </mxCell>
        <mxCell id="y9MZZ9A1IKefR8tWNW04-41" value="4" style="edgeLabel;resizable=0;labelBackgroundColor=none;fontSize=12;align=left;verticalAlign=bottom;" vertex="1" parent="y9MZZ9A1IKefR8tWNW04-39">
          <mxGeometry x="1" relative="1" as="geometry" />
        </mxCell>
        <mxCell id="y9MZZ9A1IKefR8tWNW04-42" value="" style="curved=1;startArrow=none;endArrow=none;exitX=-0.00021031776570385287;exitY=0.9116561499170887;entryX=0.5036183808979235;entryY=0.001949377227247807;rounded=0;" edge="1" parent="1" source="y9MZZ9A1IKefR8tWNW04-28" target="y9MZZ9A1IKefR8tWNW04-7">
          <mxGeometry relative="1" as="geometry">
            <Array as="points">
              <mxPoint x="356" y="369" />
            </Array>
          </mxGeometry>
        </mxCell>
        <mxCell id="y9MZZ9A1IKefR8tWNW04-43" value="1" style="edgeLabel;resizable=0;labelBackgroundColor=none;fontSize=12;align=right;verticalAlign=top;" vertex="1" parent="y9MZZ9A1IKefR8tWNW04-42">
          <mxGeometry x="-1" relative="1" as="geometry" />
        </mxCell>
        <mxCell id="y9MZZ9A1IKefR8tWNW04-44" value="4" style="edgeLabel;resizable=0;labelBackgroundColor=none;fontSize=12;align=left;verticalAlign=bottom;" vertex="1" parent="y9MZZ9A1IKefR8tWNW04-42">
          <mxGeometry x="1" relative="1" as="geometry" />
        </mxCell>
        <mxCell id="y9MZZ9A1IKefR8tWNW04-45" value="" style="curved=1;startArrow=none;endArrow=none;exitX=1.00114837788647;exitY=0.9116561499170887;entryX=0.5001648388320593;entryY=3.932677593427835e-8;rounded=0;" edge="1" parent="1" source="y9MZZ9A1IKefR8tWNW04-28" target="y9MZZ9A1IKefR8tWNW04-14">
          <mxGeometry relative="1" as="geometry">
            <Array as="points">
              <mxPoint x="849" y="369" />
            </Array>
          </mxGeometry>
        </mxCell>
        <mxCell id="y9MZZ9A1IKefR8tWNW04-46" value="1" style="edgeLabel;resizable=0;labelBackgroundColor=none;fontSize=12;align=right;verticalAlign=top;" vertex="1" parent="y9MZZ9A1IKefR8tWNW04-45">
          <mxGeometry x="-1" relative="1" as="geometry" />
        </mxCell>
        <mxCell id="y9MZZ9A1IKefR8tWNW04-47" value="4" style="edgeLabel;resizable=0;labelBackgroundColor=none;fontSize=12;align=left;verticalAlign=bottom;" vertex="1" parent="y9MZZ9A1IKefR8tWNW04-45">
          <mxGeometry x="1" relative="1" as="geometry" />
        </mxCell>
        <mxCell id="y9MZZ9A1IKefR8tWNW04-48" value="" style="curved=1;startArrow=none;endArrow=none;exitX=1.00114837788647;exitY=0.6377914718037364;entryX=0.5028507031892475;entryY=-0.0022522178856102196;rounded=0;" edge="1" parent="1" source="y9MZZ9A1IKefR8tWNW04-28" target="y9MZZ9A1IKefR8tWNW04-22">
          <mxGeometry relative="1" as="geometry">
            <Array as="points">
              <mxPoint x="1342" y="369" />
            </Array>
          </mxGeometry>
        </mxCell>
        <mxCell id="y9MZZ9A1IKefR8tWNW04-49" value="1" style="edgeLabel;resizable=0;labelBackgroundColor=none;fontSize=12;align=left;verticalAlign=top;" vertex="1" parent="y9MZZ9A1IKefR8tWNW04-48">
          <mxGeometry x="-1" relative="1" as="geometry" />
        </mxCell>
        <mxCell id="y9MZZ9A1IKefR8tWNW04-50" value="4" style="edgeLabel;resizable=0;labelBackgroundColor=none;fontSize=12;align=right;verticalAlign=bottom;" vertex="1" parent="y9MZZ9A1IKefR8tWNW04-48">
          <mxGeometry x="1" relative="1" as="geometry" />
        </mxCell>
        <mxCell id="y9MZZ9A1IKefR8tWNW04-51" value="" style="curved=1;startArrow=none;endArrow=none;exitX=0.5041466731174736;exitY=1.0041666984558106;entryX=0.5004690300603831;entryY=0.0017182261673445553;rounded=0;" edge="1" parent="1" source="y9MZZ9A1IKefR8tWNW04-36" target="y9MZZ9A1IKefR8tWNW04-28">
          <mxGeometry relative="1" as="geometry">
            <Array as="points" />
          </mxGeometry>
        </mxCell>
        <mxCell id="y9MZZ9A1IKefR8tWNW04-52" value="1" style="edgeLabel;resizable=0;labelBackgroundColor=none;fontSize=12;align=right;verticalAlign=top;" vertex="1" parent="y9MZZ9A1IKefR8tWNW04-51">
          <mxGeometry x="-1" relative="1" as="geometry" />
        </mxCell>
        <mxCell id="y9MZZ9A1IKefR8tWNW04-53" value="1" style="edgeLabel;resizable=0;labelBackgroundColor=none;fontSize=12;align=left;verticalAlign=bottom;" vertex="1" parent="y9MZZ9A1IKefR8tWNW04-51">
          <mxGeometry x="1" relative="1" as="geometry" />
        </mxCell>
        <mxCell id="y9MZZ9A1IKefR8tWNW04-54" value="Start" style="whiteSpace=wrap;strokeWidth=2;" vertex="1" parent="1">
          <mxGeometry y="620" width="50" height="34" as="geometry" />
        </mxCell>
        <mxCell id="y9MZZ9A1IKefR8tWNW04-55" value="Score provided?" style="rhombus;strokeWidth=2;whiteSpace=wrap;" vertex="1" parent="1">
          <mxGeometry x="-55.5" y="700" width="161" height="161" as="geometry" />
        </mxCell>
        <mxCell id="y9MZZ9A1IKefR8tWNW04-56" value="Set Score" style="whiteSpace=wrap;strokeWidth=2;" vertex="1" parent="1">
          <mxGeometry x="-40" y="940" width="82" height="34" as="geometry" />
        </mxCell>
        <mxCell id="y9MZZ9A1IKefR8tWNW04-57" value="Return Score" style="whiteSpace=wrap;strokeWidth=2;" vertex="1" parent="1">
          <mxGeometry x="-52" y="1030" width="106" height="34" as="geometry" />
        </mxCell>
        <mxCell id="y9MZZ9A1IKefR8tWNW04-58" value="Loop back to input score" style="whiteSpace=wrap;strokeWidth=2;" vertex="1" parent="1">
          <mxGeometry x="80" y="1010" width="192" height="34" as="geometry" />
        </mxCell>
        <mxCell id="y9MZZ9A1IKefR8tWNW04-59" value="End" style="whiteSpace=wrap;strokeWidth=2;" vertex="1" parent="1">
          <mxGeometry x="-19.5" y="1110" width="41" height="34" as="geometry" />
        </mxCell>
        <mxCell id="y9MZZ9A1IKefR8tWNW04-60" value="" style="curved=1;startArrow=none;endArrow=block;exitX=0.5044141101837158;exitY=0.9901961158303654;entryX=0.49826525160984964;entryY=-0.0020703854768172555;rounded=0;" edge="1" parent="1" source="y9MZZ9A1IKefR8tWNW04-54" target="y9MZZ9A1IKefR8tWNW04-55">
          <mxGeometry relative="1" as="geometry">
            <Array as="points" />
          </mxGeometry>
        </mxCell>
        <mxCell id="y9MZZ9A1IKefR8tWNW04-61" value="Yes" style="curved=1;startArrow=none;endArrow=block;exitX=0.0015342271947074353;exitY=0.999838290007218;entryX=0.5024771341463414;entryY=-0.01056962854721967;rounded=0;" edge="1" parent="1" source="y9MZZ9A1IKefR8tWNW04-55" target="y9MZZ9A1IKefR8tWNW04-56">
          <mxGeometry relative="1" as="geometry">
            <Array as="points">
              <mxPoint x="73" y="899" />
            </Array>
          </mxGeometry>
        </mxCell>
        <mxCell id="y9MZZ9A1IKefR8tWNW04-62" value="" style="curved=1;startArrow=none;endArrow=block;exitX=0.5024771341463414;exitY=0.9796264872831457;entryX=0.5019162735849056;entryY=0.009038251989028034;rounded=0;" edge="1" parent="1" source="y9MZZ9A1IKefR8tWNW04-56" target="y9MZZ9A1IKefR8tWNW04-57">
          <mxGeometry relative="1" as="geometry">
            <Array as="points" />
          </mxGeometry>
        </mxCell>
        <mxCell id="y9MZZ9A1IKefR8tWNW04-64" value="" style="curved=1;startArrow=none;endArrow=block;exitX=0.5019162735849056;exitY=0.9992343678193933;entryX=0.4927591463414634;entryY=-0.0007656321806066177;rounded=0;" edge="1" parent="1" source="y9MZZ9A1IKefR8tWNW04-57" target="y9MZZ9A1IKefR8tWNW04-59">
          <mxGeometry relative="1" as="geometry">
            <Array as="points" />
          </mxGeometry>
        </mxCell>
        <mxCell id="y9MZZ9A1IKefR8tWNW04-65" value="" style="curved=1;startArrow=none;endArrow=block;exitX=0.5254657192018161;exitY=-0.01056962854721967;entryX=0.8796678633140056;entryY=0.999838290007218;rounded=0;" edge="1" parent="1" source="y9MZZ9A1IKefR8tWNW04-58" target="y9MZZ9A1IKefR8tWNW04-55">
          <mxGeometry relative="1" as="geometry">
            <Array as="points">
              <mxPoint x="200" y="910" />
              <mxPoint x="275" y="899" />
            </Array>
          </mxGeometry>
        </mxCell>
        <mxCell id="y9MZZ9A1IKefR8tWNW04-69" style="edgeStyle=orthogonalEdgeStyle;rounded=0;orthogonalLoop=1;jettySize=auto;html=1;exitX=0;exitY=0.5;exitDx=0;exitDy=0;entryX=0.25;entryY=0;entryDx=0;entryDy=0;" edge="1" parent="1" source="y9MZZ9A1IKefR8tWNW04-4" target="y9MZZ9A1IKefR8tWNW04-54">
          <mxGeometry relative="1" as="geometry" />
        </mxCell>
        <mxCell id="y9MZZ9A1IKefR8tWNW04-70" value="" style="endArrow=open;endFill=1;endSize=12;html=1;rounded=0;exitX=0.208;exitY=0.029;exitDx=0;exitDy=0;exitPerimeter=0;" edge="1" parent="1" source="y9MZZ9A1IKefR8tWNW04-58" target="y9MZZ9A1IKefR8tWNW04-55">
          <mxGeometry width="160" relative="1" as="geometry">
            <mxPoint x="90" y="830" as="sourcePoint" />
            <mxPoint x="250" y="830" as="targetPoint" />
          </mxGeometry>
        </mxCell>
        <mxCell id="y9MZZ9A1IKefR8tWNW04-71" value="Start" style="whiteSpace=wrap;strokeWidth=2;" vertex="1" parent="1">
          <mxGeometry x="391" y="620" width="50" height="34" as="geometry" />
        </mxCell>
        <mxCell id="y9MZZ9A1IKefR8tWNW04-72" value="Score provided?" style="rhombus;strokeWidth=2;whiteSpace=wrap;" vertex="1" parent="1">
          <mxGeometry x="335.5" y="690" width="161" height="161" as="geometry" />
        </mxCell>
        <mxCell id="y9MZZ9A1IKefR8tWNW04-73" value="Set Score" style="whiteSpace=wrap;strokeWidth=2;" vertex="1" parent="1">
          <mxGeometry x="302" y="909" width="82" height="34" as="geometry" />
        </mxCell>
        <mxCell id="y9MZZ9A1IKefR8tWNW04-74" value="Return Score" style="whiteSpace=wrap;strokeWidth=2;" vertex="1" parent="1">
          <mxGeometry x="290" y="992" width="106" height="34" as="geometry" />
        </mxCell>
        <mxCell id="y9MZZ9A1IKefR8tWNW04-75" value="Loop back to input score" style="whiteSpace=wrap;strokeWidth=2;" vertex="1" parent="1">
          <mxGeometry x="407" y="920" width="192" height="34" as="geometry" />
        </mxCell>
        <mxCell id="y9MZZ9A1IKefR8tWNW04-76" value="End" style="whiteSpace=wrap;strokeWidth=2;" vertex="1" parent="1">
          <mxGeometry x="323" y="1076" width="41" height="34" as="geometry" />
        </mxCell>
        <mxCell id="y9MZZ9A1IKefR8tWNW04-77" value="" style="curved=1;startArrow=none;endArrow=block;exitX=0.5044141101837158;exitY=0.9901961158303654;entryX=0.49826525160984964;entryY=-0.0020703854768172555;rounded=0;" edge="1" parent="1" source="y9MZZ9A1IKefR8tWNW04-71" target="y9MZZ9A1IKefR8tWNW04-72">
          <mxGeometry relative="1" as="geometry">
            <Array as="points" />
          </mxGeometry>
        </mxCell>
        <mxCell id="y9MZZ9A1IKefR8tWNW04-78" value="Yes" style="curved=1;startArrow=none;endArrow=block;exitX=0.0015342271947074353;exitY=0.999838290007218;entryX=0.5024771341463414;entryY=-0.01056962854721967;rounded=0;" edge="1" parent="1" source="y9MZZ9A1IKefR8tWNW04-72" target="y9MZZ9A1IKefR8tWNW04-73">
          <mxGeometry relative="1" as="geometry">
            <Array as="points">
              <mxPoint x="343" y="874" />
            </Array>
          </mxGeometry>
        </mxCell>
        <mxCell id="y9MZZ9A1IKefR8tWNW04-79" value="" style="curved=1;startArrow=none;endArrow=block;exitX=0.5024771341463414;exitY=0.9796264872831457;entryX=0.5019162735849056;entryY=0.009038251989028034;rounded=0;" edge="1" parent="1" source="y9MZZ9A1IKefR8tWNW04-73" target="y9MZZ9A1IKefR8tWNW04-74">
          <mxGeometry relative="1" as="geometry">
            <Array as="points" />
          </mxGeometry>
        </mxCell>
        <mxCell id="y9MZZ9A1IKefR8tWNW04-80" value="No" style="curved=1;startArrow=none;endArrow=block;exitX=0.49826525160984964;exitY=0.999838290007218;entryX=0.3754571830421929;entryY=-0.01056962854721967;rounded=0;" edge="1" parent="1" source="y9MZZ9A1IKefR8tWNW04-72" target="y9MZZ9A1IKefR8tWNW04-75">
          <mxGeometry relative="1" as="geometry">
            <Array as="points">
              <mxPoint x="457" y="874" />
            </Array>
          </mxGeometry>
        </mxCell>
        <mxCell id="y9MZZ9A1IKefR8tWNW04-81" value="" style="curved=1;startArrow=none;endArrow=block;exitX=0.5019162735849056;exitY=0.9992343678193933;entryX=0.4927591463414634;entryY=-0.0007656321806066177;rounded=0;" edge="1" parent="1" source="y9MZZ9A1IKefR8tWNW04-74" target="y9MZZ9A1IKefR8tWNW04-76">
          <mxGeometry relative="1" as="geometry">
            <Array as="points" />
          </mxGeometry>
        </mxCell>
        <mxCell id="y9MZZ9A1IKefR8tWNW04-82" value="" style="curved=1;startArrow=none;endArrow=block;exitX=0.5254657192018161;exitY=-0.01056962854721967;entryX=0.8796678633140056;entryY=0.999838290007218;rounded=0;" edge="1" parent="1" source="y9MZZ9A1IKefR8tWNW04-75" target="y9MZZ9A1IKefR8tWNW04-72">
          <mxGeometry relative="1" as="geometry">
            <Array as="points">
              <mxPoint x="545" y="874" />
            </Array>
          </mxGeometry>
        </mxCell>
        <mxCell id="y9MZZ9A1IKefR8tWNW04-83" style="edgeStyle=orthogonalEdgeStyle;rounded=0;orthogonalLoop=1;jettySize=auto;html=1;exitX=1;exitY=0.5;exitDx=0;exitDy=0;entryX=0.5;entryY=0;entryDx=0;entryDy=0;" edge="1" parent="1" source="y9MZZ9A1IKefR8tWNW04-12" target="y9MZZ9A1IKefR8tWNW04-71">
          <mxGeometry relative="1" as="geometry" />
        </mxCell>
        <mxCell id="y9MZZ9A1IKefR8tWNW04-84" value="Start" style="whiteSpace=wrap;strokeWidth=2;" vertex="1" parent="1">
          <mxGeometry x="735" y="679" width="50" height="34" as="geometry" />
        </mxCell>
        <mxCell id="y9MZZ9A1IKefR8tWNW04-85" value="Values provided?" style="rhombus;strokeWidth=2;whiteSpace=wrap;" vertex="1" parent="1">
          <mxGeometry x="677" y="763" width="168" height="168" as="geometry" />
        </mxCell>
        <mxCell id="y9MZZ9A1IKefR8tWNW04-86" value="Set Values" style="whiteSpace=wrap;strokeWidth=2;" vertex="1" parent="1">
          <mxGeometry x="599" y="999" width="88" height="34" as="geometry" />
        </mxCell>
        <mxCell id="y9MZZ9A1IKefR8tWNW04-87" value="Calculate Total Score" style="whiteSpace=wrap;strokeWidth=2;" vertex="1" parent="1">
          <mxGeometry x="560" y="1083" width="166" height="34" as="geometry" />
        </mxCell>
        <mxCell id="y9MZZ9A1IKefR8tWNW04-88" value="Return Total Score" style="whiteSpace=wrap;strokeWidth=2;" vertex="1" parent="1">
          <mxGeometry x="570" y="1167" width="146" height="34" as="geometry" />
        </mxCell>
        <mxCell id="y9MZZ9A1IKefR8tWNW04-89" value="Loop back to input values" style="whiteSpace=wrap;strokeWidth=2;" vertex="1" parent="1">
          <mxGeometry x="737" y="999" width="199" height="34" as="geometry" />
        </mxCell>
        <mxCell id="y9MZZ9A1IKefR8tWNW04-90" value="End" style="whiteSpace=wrap;strokeWidth=2;" vertex="1" parent="1">
          <mxGeometry x="623" y="1250" width="41" height="34" as="geometry" />
        </mxCell>
        <mxCell id="y9MZZ9A1IKefR8tWNW04-91" value="" style="curved=1;startArrow=none;endArrow=block;exitX=0.5114713764190674;exitY=0.9901961158303654;entryX=0.4974617191723415;entryY=-0.001984119415283203;rounded=0;" edge="1" parent="1" source="y9MZZ9A1IKefR8tWNW04-84" target="y9MZZ9A1IKefR8tWNW04-85">
          <mxGeometry relative="1" as="geometry">
            <Array as="points" />
          </mxGeometry>
        </mxCell>
        <mxCell id="y9MZZ9A1IKefR8tWNW04-92" value="Yes" style="curved=1;startArrow=none;endArrow=block;exitX=0.001499039049577753;exitY=0.9982329550243559;entryX=0.5023082386363636;entryY=0.01087659948012408;rounded=0;" edge="1" parent="1" source="y9MZZ9A1IKefR8tWNW04-85" target="y9MZZ9A1IKefR8tWNW04-86">
          <mxGeometry relative="1" as="geometry">
            <Array as="points">
              <mxPoint x="643" y="965" />
            </Array>
          </mxGeometry>
        </mxCell>
        <mxCell id="y9MZZ9A1IKefR8tWNW04-93" value="" style="curved=1;startArrow=none;endArrow=block;exitX=0.5023082386363636;exitY=1.0010727153104895;entryX=0.5012236445783133;entryY=0.00107271531048943;rounded=0;" edge="1" parent="1" source="y9MZZ9A1IKefR8tWNW04-86" target="y9MZZ9A1IKefR8tWNW04-87">
          <mxGeometry relative="1" as="geometry">
            <Array as="points" />
          </mxGeometry>
        </mxCell>
        <mxCell id="y9MZZ9A1IKefR8tWNW04-94" value="" style="curved=1;startArrow=none;endArrow=block;exitX=0.5012236445783133;exitY=0.9912688311408547;entryX=0.5013912671232876;entryY=-0.008731168859145221;rounded=0;" edge="1" parent="1" source="y9MZZ9A1IKefR8tWNW04-87" target="y9MZZ9A1IKefR8tWNW04-88">
          <mxGeometry relative="1" as="geometry">
            <Array as="points" />
          </mxGeometry>
        </mxCell>
        <mxCell id="y9MZZ9A1IKefR8tWNW04-95" value="No" style="curved=1;startArrow=none;endArrow=block;exitX=0.4974617191723415;exitY=0.9982329550243559;entryX=0.37532887682388005;entryY=0.01087659948012408;rounded=0;" edge="1" parent="1" source="y9MZZ9A1IKefR8tWNW04-85" target="y9MZZ9A1IKefR8tWNW04-89">
          <mxGeometry relative="1" as="geometry">
            <Array as="points">
              <mxPoint x="761" y="965" />
            </Array>
          </mxGeometry>
        </mxCell>
        <mxCell id="y9MZZ9A1IKefR8tWNW04-96" value="" style="curved=1;startArrow=none;endArrow=block;exitX=0.5013912671232876;exitY=0.9814649469712201;entryX=0.4927591463414634;entryY=0.010876711677102482;rounded=0;" edge="1" parent="1" source="y9MZZ9A1IKefR8tWNW04-88" target="y9MZZ9A1IKefR8tWNW04-90">
          <mxGeometry relative="1" as="geometry">
            <Array as="points" />
          </mxGeometry>
        </mxCell>
        <mxCell id="y9MZZ9A1IKefR8tWNW04-97" value="" style="curved=1;startArrow=none;endArrow=block;exitX=0.5256037422627328;exitY=0.01087659948012408;entryX=0.8815638103831164;entryY=0.9982329550243559;rounded=0;" edge="1" parent="1" source="y9MZZ9A1IKefR8tWNW04-89" target="y9MZZ9A1IKefR8tWNW04-85">
          <mxGeometry relative="1" as="geometry">
            <Array as="points">
              <mxPoint x="851" y="965" />
            </Array>
          </mxGeometry>
        </mxCell>
        <mxCell id="y9MZZ9A1IKefR8tWNW04-98" style="edgeStyle=orthogonalEdgeStyle;rounded=0;orthogonalLoop=1;jettySize=auto;html=1;exitX=1;exitY=0.5;exitDx=0;exitDy=0;entryX=0.75;entryY=0;entryDx=0;entryDy=0;" edge="1" parent="1" source="y9MZZ9A1IKefR8tWNW04-20" target="y9MZZ9A1IKefR8tWNW04-84">
          <mxGeometry relative="1" as="geometry" />
        </mxCell>
        <mxCell id="y9MZZ9A1IKefR8tWNW04-99" value="Start" style="whiteSpace=wrap;strokeWidth=2;" vertex="1" parent="1">
          <mxGeometry x="1112" y="629" width="50" height="34" as="geometry" />
        </mxCell>
        <mxCell id="y9MZZ9A1IKefR8tWNW04-100" value="Score provided?" style="rhombus;strokeWidth=2;whiteSpace=wrap;" vertex="1" parent="1">
          <mxGeometry x="1057" y="713" width="161" height="161" as="geometry" />
        </mxCell>
        <mxCell id="y9MZZ9A1IKefR8tWNW04-101" value="Set Score" style="whiteSpace=wrap;strokeWidth=2;" vertex="1" parent="1">
          <mxGeometry x="982" y="943" width="82" height="34" as="geometry" />
        </mxCell>
        <mxCell id="y9MZZ9A1IKefR8tWNW04-102" value="Return Score" style="whiteSpace=wrap;strokeWidth=2;" vertex="1" parent="1">
          <mxGeometry x="970" y="1026" width="106" height="34" as="geometry" />
        </mxCell>
        <mxCell id="y9MZZ9A1IKefR8tWNW04-103" value="Loop back to input score" style="whiteSpace=wrap;strokeWidth=2;" vertex="1" parent="1">
          <mxGeometry x="1114" y="943" width="192" height="34" as="geometry" />
        </mxCell>
        <mxCell id="y9MZZ9A1IKefR8tWNW04-104" value="End" style="whiteSpace=wrap;strokeWidth=2;" vertex="1" parent="1">
          <mxGeometry x="1003" y="1110" width="41" height="34" as="geometry" />
        </mxCell>
        <mxCell id="y9MZZ9A1IKefR8tWNW04-105" value="" style="curved=1;startArrow=none;endArrow=block;exitX=0.5044141101837158;exitY=0.9901961158303654;entryX=0.49826525160984964;entryY=-0.0020703854768172555;rounded=0;" edge="1" parent="1" source="y9MZZ9A1IKefR8tWNW04-99" target="y9MZZ9A1IKefR8tWNW04-100">
          <mxGeometry relative="1" as="geometry">
            <Array as="points" />
          </mxGeometry>
        </mxCell>
        <mxCell id="y9MZZ9A1IKefR8tWNW04-106" value="Yes" style="curved=1;startArrow=none;endArrow=block;exitX=0.0015342271947074353;exitY=0.999838290007218;entryX=0.5024771341463414;entryY=-0.01056962854721967;rounded=0;" edge="1" parent="1" source="y9MZZ9A1IKefR8tWNW04-100" target="y9MZZ9A1IKefR8tWNW04-101">
          <mxGeometry relative="1" as="geometry">
            <Array as="points">
              <mxPoint x="1023" y="908" />
            </Array>
          </mxGeometry>
        </mxCell>
        <mxCell id="y9MZZ9A1IKefR8tWNW04-107" value="" style="curved=1;startArrow=none;endArrow=block;exitX=0.5024771341463414;exitY=0.9796264872831457;entryX=0.5019162735849056;entryY=0.009038251989028034;rounded=0;" edge="1" parent="1" source="y9MZZ9A1IKefR8tWNW04-101" target="y9MZZ9A1IKefR8tWNW04-102">
          <mxGeometry relative="1" as="geometry">
            <Array as="points" />
          </mxGeometry>
        </mxCell>
        <mxCell id="y9MZZ9A1IKefR8tWNW04-108" value="No" style="curved=1;startArrow=none;endArrow=block;exitX=0.49826525160984964;exitY=0.999838290007218;entryX=0.3754571830421929;entryY=-0.01056962854721967;rounded=0;" edge="1" parent="1" source="y9MZZ9A1IKefR8tWNW04-100" target="y9MZZ9A1IKefR8tWNW04-103">
          <mxGeometry relative="1" as="geometry">
            <Array as="points">
              <mxPoint x="1137" y="908" />
            </Array>
          </mxGeometry>
        </mxCell>
        <mxCell id="y9MZZ9A1IKefR8tWNW04-109" value="" style="curved=1;startArrow=none;endArrow=block;exitX=0.5019162735849056;exitY=0.9992343678193933;entryX=0.4927591463414634;entryY=-0.0007656321806066177;rounded=0;" edge="1" parent="1" source="y9MZZ9A1IKefR8tWNW04-102" target="y9MZZ9A1IKefR8tWNW04-104">
          <mxGeometry relative="1" as="geometry">
            <Array as="points" />
          </mxGeometry>
        </mxCell>
        <mxCell id="y9MZZ9A1IKefR8tWNW04-110" value="" style="curved=1;startArrow=none;endArrow=block;exitX=0.5254657192018161;exitY=-0.01056962854721967;entryX=0.8796678633140056;entryY=0.999838290007218;rounded=0;" edge="1" parent="1" source="y9MZZ9A1IKefR8tWNW04-103" target="y9MZZ9A1IKefR8tWNW04-100">
          <mxGeometry relative="1" as="geometry">
            <Array as="points">
              <mxPoint x="1225" y="908" />
            </Array>
          </mxGeometry>
        </mxCell>
        <mxCell id="y9MZZ9A1IKefR8tWNW04-111" style="edgeStyle=orthogonalEdgeStyle;rounded=0;orthogonalLoop=1;jettySize=auto;html=1;exitX=0;exitY=0.5;exitDx=0;exitDy=0;entryX=0.5;entryY=0;entryDx=0;entryDy=0;" edge="1" parent="1" source="y9MZZ9A1IKefR8tWNW04-26" target="y9MZZ9A1IKefR8tWNW04-99">
          <mxGeometry relative="1" as="geometry" />
        </mxCell>
      </root>
    </mxGraphModel>
  </diagram>
</mxfile>
